<svg xmlns="http://www.w3.org/2000/svg" viewBox="0 0 64 64" fill="none">
  <defs>
    <linearGradient id="bg" x1="8" y1="6" x2="56" y2="58" gradientUnits="userSpaceOnUse">
      <stop stop-color="#FFE1EF"/>
      <stop offset="1" stop-color="#DDF3FF"/>
    </linearGradient>
  </defs>
  <rect x="4" y="4" width="56" height="56" rx="16" fill="url(#bg)"/>
  <path d="M19 24c0-4.4 3.6-8 8-8h10c4.4 0 8 3.6 8 8v4c0 4.4-3.6 8-8 8h-3.6l-4.9 7.1a1.2 1.2 0 0 1-2.2-.7V36H27c-4.4 0-8-3.6-8-8v-4Z" fill="#FF7DB2"/>
  <circle cx="27" cy="26" r="2" fill="white"/>
  <circle cx="37" cy="26" r="2" fill="white"/>
  <path d="M26.5 31.5c1.1 1 2.4 1.5 3.5 1.5s2.4-.5 3.5-1.5" stroke="white" stroke-width="1.8" stroke-linecap="round"/>
</svg>
